<svg width="40" height="40" viewBox="0 0 40 40" fill="none" xmlns="http://www.w3.org/2000/svg">
<path d="M31.7047 28.295C30.9241 27.5473 30.1643 26.7781 29.4263 25.9883C28.8063 25.3583 28.433 24.9 28.433 24.9L23.7663 22.6717C25.6347 20.5527 26.6658 17.825 26.6663 15C26.6663 8.56834 21.433 3.33334 14.9997 3.33334C8.56634 3.33334 3.33301 8.56834 3.33301 15C3.33301 21.4317 8.56634 26.6667 14.9997 26.6667C17.938 26.6667 20.6163 25.5667 22.6713 23.7683L24.8997 28.435C24.8997 28.435 25.358 28.8083 25.988 29.4283C26.633 30.0333 27.4813 30.8517 28.2947 31.7067L30.558 34.0267L31.5647 35.1033L35.0997 31.5683L34.023 30.5617C33.3913 29.9417 32.548 29.1183 31.7047 28.295ZM14.9997 23.3333C10.4047 23.3333 6.66634 19.595 6.66634 15C6.66634 10.405 10.4047 6.66667 14.9997 6.66667C19.5947 6.66667 23.333 10.405 23.333 15C23.333 19.595 19.5947 23.3333 14.9997 23.3333Z" fill="black"/>
</svg>
