<svg width="40" height="34" viewBox="0 0 40 34" fill="none" xmlns="http://www.w3.org/2000/svg">
<g clip-path="url(#clip0_213:285)">
<path d="M15.3846 30.7692C15.3846 31.6026 15.0801 32.3237 14.4712 32.9327C13.8622 33.5417 13.141 33.8462 12.3077 33.8462C11.4744 33.8462 10.7532 33.5417 10.1442 32.9327C9.53526 32.3237 9.23077 31.6026 9.23077 30.7692C9.23077 29.9359 9.53526 29.2147 10.1442 28.6058C10.7532 27.9968 11.4744 27.6923 12.3077 27.6923C13.141 27.6923 13.8622 27.9968 14.4712 28.6058C15.0801 29.2147 15.3846 29.9359 15.3846 30.7692ZM36.9231 30.7692C36.9231 31.6026 36.6186 32.3237 36.0096 32.9327C35.4006 33.5417 34.6795 33.8462 33.8462 33.8462C33.0128 33.8462 32.2917 33.5417 31.6827 32.9327C31.0737 32.3237 30.7692 31.6026 30.7692 30.7692C30.7692 29.9359 31.0737 29.2147 31.6827 28.6058C32.2917 27.9968 33.0128 27.6923 33.8462 27.6923C34.6795 27.6923 35.4006 27.9968 36.0096 28.6058C36.6186 29.2147 36.9231 29.9359 36.9231 30.7692ZM40 4.61538V16.9231C40 17.3077 39.8678 17.6482 39.6034 17.9447C39.3389 18.2412 39.0144 18.4135 38.6298 18.4615L13.5337 21.3942C13.742 22.3558 13.8462 22.9167 13.8462 23.0769C13.8462 23.3333 13.6538 23.8462 13.2692 24.6154H35.3846C35.8013 24.6154 36.1619 24.7676 36.4663 25.0721C36.7708 25.3766 36.9231 25.7372 36.9231 26.1538C36.9231 26.5705 36.7708 26.9311 36.4663 27.2356C36.1619 27.5401 35.8013 27.6923 35.3846 27.6923H10.7692C10.3526 27.6923 9.99199 27.5401 9.6875 27.2356C9.38301 26.9311 9.23077 26.5705 9.23077 26.1538C9.23077 25.9776 9.29487 25.7252 9.42308 25.3966C9.55128 25.0681 9.67949 24.7796 9.80769 24.5312C9.9359 24.2829 10.1082 23.9623 10.3245 23.5697C10.5409 23.1771 10.6651 22.9407 10.6971 22.8606L6.44231 3.07692H1.53846C1.12179 3.07692 0.761218 2.92468 0.456731 2.62019C0.152244 2.31571 0 1.95513 0 1.53846C0 1.12179 0.152244 0.761218 0.456731 0.456731C0.761218 0.152244 1.12179 0 1.53846 0H7.69231C7.94872 0 8.17708 0.0520833 8.3774 0.15625C8.57772 0.260417 8.73397 0.384615 8.84615 0.528846C8.95833 0.673077 9.0625 0.869391 9.15865 1.11779C9.25481 1.36619 9.31891 1.57452 9.35096 1.74279C9.38301 1.91106 9.42708 2.14744 9.48317 2.45192C9.53926 2.75641 9.57532 2.96474 9.59135 3.07692H38.4615C38.8782 3.07692 39.2388 3.22917 39.5433 3.53365C39.8478 3.83814 40 4.19872 40 4.61538Z" fill="black"/>
</g>
<defs>
<clipPath id="clip0_213:285">
<rect width="40" height="33.8462" fill="white"/>
</clipPath>
</defs>
</svg>
