<svg width="45" height="45" viewBox="0 0 45 45" fill="none" xmlns="http://www.w3.org/2000/svg">
<path d="M37.7719 15.5063L40.7025 12.5756L38.0513 9.92438L34.8488 13.125C32.88 11.9438 30.585 11.25 28.125 11.25C20.8894 11.25 15 17.1375 15 24.375C15 31.6125 20.8894 37.5 28.125 37.5C35.3606 37.5 41.25 31.6125 41.25 24.375C41.2485 21.0863 40.0064 17.9192 37.7719 15.5063ZM28.125 33.75C22.9556 33.75 18.75 29.5444 18.75 24.375C18.75 19.2056 22.9556 15 28.125 15C33.2944 15 37.5 19.2056 37.5 24.375C37.5 29.5444 33.2944 33.75 28.125 33.75Z" fill="black"/>
<path d="M26.25 18.75H30V26.25H26.25V18.75ZM24.375 5.625H31.875V9.375H24.375V5.625ZM5.625 15H13.125V18.75H5.625V15ZM5.625 30H13.125V33.75H5.625V30ZM3.75 22.5H11.2312V26.25H3.75V22.5Z" fill="black"/>
</svg>
