<svg width="40" height="40" viewBox="0 0 40 40" fill="none" xmlns="http://www.w3.org/2000/svg">
<path d="M19.9998 16.6667C20.7659 16.6667 21.5244 16.5158 22.2322 16.2226C22.9399 15.9295 23.583 15.4998 24.1246 14.9581C24.6663 14.4164 25.096 13.7734 25.3891 13.0657C25.6823 12.3579 25.8332 11.5994 25.8332 10.8333C25.8332 10.0673 25.6823 9.30875 25.3891 8.60101C25.096 7.89328 24.6663 7.25022 24.1246 6.70854C23.583 6.16687 22.9399 5.73719 22.2322 5.44404C21.5244 5.15088 20.7659 5 19.9998 5C18.4527 5 16.969 5.61458 15.875 6.70854C14.7811 7.80251 14.1665 9.28624 14.1665 10.8333C14.1665 12.3804 14.7811 13.8642 15.875 14.9581C16.969 16.0521 18.4527 16.6667 19.9998 16.6667V16.6667Z" stroke="black" stroke-width="4" stroke-linecap="round" stroke-linejoin="round"/>
<path d="M5 34V35H35V34C35 30.2667 35 28.4 34.2733 26.9733C33.6342 25.719 32.6144 24.6991 31.36 24.06C29.9333 23.3333 28.0667 23.3333 24.3333 23.3333H15.6667C11.9333 23.3333 10.0667 23.3333 8.64 24.06C7.38564 24.6991 6.36581 25.719 5.72667 26.9733C5 28.4 5 30.2667 5 34Z" stroke="black" stroke-width="4" stroke-linecap="round" stroke-linejoin="round"/>
</svg>
