<svg width="224" height="39" viewBox="0 0 224 39" fill="none" xmlns="http://www.w3.org/2000/svg">
<path d="M17.1664 9.713C15.2284 9.713 13.4044 10.511 11.9794 11.765C12.1504 7.319 12.5494 3.443 12.6634 2.759C13.5184 -0.946001 8.10339 1.847 6.10839 2.873C4.11339 3.899 1.14939 5.039 0.921387 6.749C0.807387 7.661 1.60539 8.06 2.17539 8.858C3.37239 10.397 3.20139 13.304 3.20139 17.009C3.20139 20.258 3.14439 24.875 1.94739 25.958C1.43439 26.471 0.807387 26.756 0.921387 27.497C1.14939 29.207 3.14439 29.492 4.85439 29.492C5.65239 29.492 9.47139 28.865 10.9534 28.865C12.3784 28.865 13.4044 29.492 17.1664 29.492C21.3274 29.492 25.7164 25.046 25.7164 19.631C25.7164 14.159 21.8404 9.713 17.1664 9.713ZM14.1454 26.813C12.7774 27.44 11.8654 25.616 11.8654 19.403C11.8654 15.527 12.0364 13.988 13.1194 13.076C17.3374 9.314 20.1304 23.963 14.1454 26.813ZM48.7079 12.278C47.7959 11.024 45.9719 9.713 43.1789 9.713C41.2409 9.713 39.1319 10.796 37.8209 12.278C37.8779 11.936 37.9349 11.708 37.9349 11.537C38.7899 7.889 33.3749 10.682 31.3799 11.651C29.3849 12.677 26.4209 13.874 26.1929 15.584C26.0789 16.439 26.8769 16.895 27.4469 17.636C28.6439 19.175 28.4159 24.875 27.2189 25.958C26.7059 26.471 26.0789 26.756 26.1929 27.497C26.4209 29.207 30.5819 29.492 32.8049 29.492C35.0279 29.492 39.4169 29.207 39.6449 27.497C39.7589 26.813 39.0749 26.642 38.5619 26.072C36.9089 24.362 37.0229 19.688 37.3079 16.04C37.4789 14.102 38.4479 13.703 39.0179 13.703C40.5569 13.703 41.4689 15.128 42.3809 16.382C45.3449 20.714 50.5319 14.786 48.7079 12.278ZM68.2865 20.543C64.6385 24.647 59.5085 25.16 57.7985 21.341C58.5395 21.683 59.5655 21.797 60.5345 21.797C64.8095 21.797 69.7115 17.294 68.0015 13.874C66.6335 11.195 63.2135 9.713 59.3945 9.713C53.5805 9.713 48.7925 14.159 48.7925 19.631C48.7925 25.046 53.5805 29.492 59.3945 29.492C64.4675 29.492 68.7425 26.186 69.7685 21.74L69.8825 21.17C69.9965 20.201 69.1415 19.574 68.2865 20.543ZM59.3945 11.936C60.8195 11.936 61.1615 17.522 57.7415 19.631C57.5705 19.688 57.4565 19.745 57.3995 19.859C57.2855 19.346 57.2285 18.833 57.2285 18.206C57.2285 15.755 57.9125 11.936 59.3945 11.936ZM107.195 9.713C105.086 9.713 102.179 10.511 101.837 11.594C101.723 12.05 101.837 12.449 102.122 12.905C102.92 14.387 101.951 18.89 99.5572 22.994C99.0442 19.859 95.6812 14.33 96.3652 13.247C96.7072 12.734 97.1632 12.449 96.7072 11.708C95.6812 9.998 91.0072 9.713 88.7272 9.713C86.5042 9.713 83.8822 9.998 84.4522 11.708C84.6802 12.392 85.4212 12.62 86.1622 13.133C87.3022 13.931 88.3282 15.071 87.7012 17.921C87.3592 19.574 86.5042 21.284 85.4782 22.994C84.9652 19.859 81.6592 14.33 82.3432 13.247C82.6282 12.734 83.0842 12.449 82.6282 11.708C81.6592 9.998 76.9282 9.713 74.7052 9.713C72.4822 9.713 68.2072 9.998 68.7772 11.708C69.0052 12.392 69.7462 12.62 70.4872 13.133C72.5962 14.672 76.7002 20.942 78.0112 26.756C78.4672 28.694 79.7782 29.492 81.2032 29.492C83.2552 29.492 85.2502 28.01 86.9032 26.129C88.2712 24.59 89.3542 22.652 90.3802 20.771C91.0072 22.652 91.6342 24.761 92.0902 26.756C92.4892 28.694 93.8572 29.492 95.2252 29.492C97.2772 29.492 99.3292 28.01 100.982 26.129C104.744 21.797 106.625 14.729 109.247 12.905C109.931 12.449 110.501 12.05 110.729 11.594C111.413 10.511 109.247 9.713 107.195 9.713ZM130.201 13.475C128.89 10.853 124.159 9.713 120.169 9.713H120.055C114.412 9.713 109.852 12.107 110.308 16.097C110.878 21.512 122.791 22.139 121.423 26.642C120.853 28.409 117.946 28.637 118.345 25.673C118.915 20.999 108.199 21.569 110.308 25.73C111.619 28.352 116.293 29.492 120.34 29.492H120.454C125.983 29.492 130.714 26.357 130.201 23.336C129.403 18.434 118.003 17.18 119.086 12.563C119.542 10.796 122.563 10.625 122.164 13.532C121.594 18.206 132.31 17.636 130.201 13.475ZM146.451 0.878H137.844C134.367 0.878 131.175 1.334 131.175 3.5C131.175 4.412 131.802 5.609 132.315 6.293C133.113 7.49 133.683 11.366 133.797 15.185C133.683 19.061 133.113 22.937 132.315 24.134C131.802 24.818 131.175 25.958 131.175 26.87C131.175 29.093 134.367 29.492 137.844 29.492H146.451C155.4 29.492 162.468 23.051 162.468 15.185C162.468 7.319 155.4 0.878 146.451 0.878ZM146.052 26.813C143.601 26.813 142.632 22.652 142.632 15.185C142.632 7.775 143.601 3.614 146.052 3.614C150.099 3.614 152.265 11.138 152.265 15.185C152.265 19.289 150.099 26.813 146.052 26.813ZM185.975 12.278C185.063 11.024 183.239 9.713 180.446 9.713C178.508 9.713 176.399 10.796 175.088 12.278C175.145 11.936 175.202 11.708 175.202 11.537C176.057 7.889 170.642 10.682 168.647 11.651C166.652 12.677 163.688 13.874 163.46 15.584C163.346 16.439 164.144 16.895 164.714 17.636C165.911 19.175 165.683 24.875 164.486 25.958C163.973 26.471 163.346 26.756 163.46 27.497C163.688 29.207 167.849 29.492 170.072 29.492C172.295 29.492 176.684 29.207 176.912 27.497C177.026 26.813 176.342 26.642 175.829 26.072C174.176 24.362 174.29 19.688 174.575 16.04C174.746 14.102 175.715 13.703 176.285 13.703C177.824 13.703 178.736 15.128 179.648 16.382C182.612 20.714 187.799 14.786 185.975 12.278ZM192.656 9.713C194.993 9.713 196.874 7.832 196.874 5.495C196.874 3.158 194.993 1.277 192.656 1.277C190.319 1.277 188.438 3.158 188.438 5.495C188.438 7.832 190.319 9.713 192.656 9.713ZM198.47 11.537C199.325 7.889 193.91 10.682 191.915 11.651C189.92 12.677 186.956 13.874 186.728 15.584C186.614 16.439 187.412 16.895 187.982 17.636C189.179 19.175 188.951 24.875 187.754 25.958C187.241 26.471 186.614 26.756 186.728 27.497C186.956 29.207 191.117 29.492 193.34 29.492C195.563 29.492 199.952 29.207 200.18 27.497C200.294 26.813 199.61 26.642 199.097 26.072C196.475 23.336 198.128 13.19 198.47 11.537ZM214.995 9.713C213.399 9.713 211.917 10.226 210.663 11.081C210.891 8.117 205.875 10.739 203.994 11.651C201.999 12.677 199.035 13.874 198.807 15.584C198.693 16.439 199.491 16.895 200.061 17.636C201.258 19.175 201.087 22.139 201.087 25.787C201.087 29.093 201.03 33.71 199.833 34.793C199.32 35.306 198.693 35.534 198.807 36.332C199.035 38.042 203.196 38.327 205.419 38.327C207.642 38.327 212.031 38.042 212.259 36.332C212.373 35.591 211.689 35.42 211.176 34.907C210.321 33.995 209.979 31.544 209.808 28.523C210.207 28.808 211.575 29.492 214.368 29.492C219.099 29.492 223.488 25.046 223.488 19.631C223.488 14.159 219.669 9.713 214.995 9.713ZM211.917 26.813C211.347 27.098 209.751 26.585 209.751 24.476C209.751 20.657 209.922 17.579 210.207 15.071C210.264 13.931 211.176 12.449 212.316 12.449C215.679 12.449 217.275 24.362 211.917 26.813Z" fill="black"/>
</svg>
