<svg width="177" height="30" viewBox="0 0 177 30" fill="none" xmlns="http://www.w3.org/2000/svg">
<path d="M13.7366 7.405C12.2066 7.405 10.7666 8.035 9.64162 9.025C9.77662 5.515 10.0916 2.455 10.1816 1.915C10.8566 -1.01 6.58162 1.195 5.00662 2.005C3.43162 2.815 1.09162 3.715 0.911621 5.065C0.821621 5.785 1.45162 6.1 1.90162 6.73C2.84662 7.945 2.71162 10.24 2.71162 13.165C2.71162 15.73 2.66662 19.375 1.72162 20.23C1.31662 20.635 0.821621 20.86 0.911621 21.445C1.09162 22.795 2.66662 23.02 4.01662 23.02C4.64662 23.02 7.66162 22.525 8.83162 22.525C9.95662 22.525 10.7666 23.02 13.7366 23.02C17.0216 23.02 20.4866 19.51 20.4866 15.235C20.4866 10.915 17.4266 7.405 13.7366 7.405ZM11.3516 20.905C10.2716 21.4 9.55162 19.96 9.55162 15.055C9.55162 11.995 9.68662 10.78 10.5416 10.06C13.8716 7.09 16.0766 18.655 11.3516 20.905ZM38.6378 9.43C37.9178 8.44 36.4778 7.405 34.2728 7.405C32.7428 7.405 31.0778 8.26 30.0428 9.43C30.0878 9.16 30.1328 8.98 30.1328 8.845C30.8078 5.965 26.5328 8.17 24.9578 8.935C23.3828 9.745 21.0428 10.69 20.8628 12.04C20.7728 12.715 21.4028 13.075 21.8528 13.66C22.7978 14.875 22.6178 19.375 21.6728 20.23C21.2678 20.635 20.7728 20.86 20.8628 21.445C21.0428 22.795 24.3278 23.02 26.0828 23.02C27.8378 23.02 31.3028 22.795 31.4828 21.445C31.5728 20.905 31.0328 20.77 30.6278 20.32C29.3228 18.97 29.4128 15.28 29.6378 12.4C29.7728 10.87 30.5378 10.555 30.9878 10.555C32.2028 10.555 32.9228 11.68 33.6428 12.67C35.9828 16.09 40.0778 11.41 38.6378 9.43ZM54.0946 15.955C51.2146 19.195 47.1646 19.6 45.8146 16.585C46.3996 16.855 47.2096 16.945 47.9746 16.945C51.3496 16.945 55.2196 13.39 53.8696 10.69C52.7896 8.575 50.0896 7.405 47.0746 7.405C42.4846 7.405 38.7046 10.915 38.7046 15.235C38.7046 19.51 42.4846 23.02 47.0746 23.02C51.0796 23.02 54.4546 20.41 55.2646 16.9L55.3546 16.45C55.4446 15.685 54.7696 15.19 54.0946 15.955ZM47.0746 9.16C48.1996 9.16 48.4696 13.57 45.7696 15.235C45.6346 15.28 45.5446 15.325 45.4996 15.415C45.4096 15.01 45.3646 14.605 45.3646 14.11C45.3646 12.175 45.9046 9.16 47.0746 9.16ZM84.812 7.405C83.147 7.405 80.852 8.035 80.582 8.89C80.492 9.25 80.582 9.565 80.807 9.925C81.437 11.095 80.672 14.65 78.782 17.89C78.377 15.415 75.722 11.05 76.262 10.195C76.532 9.79 76.892 9.565 76.532 8.98C75.722 7.63 72.032 7.405 70.232 7.405C68.477 7.405 66.407 7.63 66.857 8.98C67.037 9.52 67.622 9.7 68.207 10.105C69.107 10.735 69.917 11.635 69.422 13.885C69.152 15.19 68.477 16.54 67.667 17.89C67.262 15.415 64.652 11.05 65.192 10.195C65.417 9.79 65.777 9.565 65.417 8.98C64.652 7.63 60.917 7.405 59.162 7.405C57.407 7.405 54.032 7.63 54.482 8.98C54.662 9.52 55.247 9.7 55.832 10.105C57.497 11.32 60.737 16.27 61.772 20.86C62.132 22.39 63.167 23.02 64.292 23.02C65.912 23.02 67.487 21.85 68.792 20.365C69.872 19.15 70.727 17.62 71.537 16.135C72.032 17.62 72.527 19.285 72.887 20.86C73.202 22.39 74.282 23.02 75.362 23.02C76.982 23.02 78.602 21.85 79.907 20.365C82.877 16.945 84.362 11.365 86.432 9.925C86.972 9.565 87.422 9.25 87.602 8.89C88.142 8.035 86.432 7.405 84.812 7.405ZM102.974 10.375C101.939 8.305 98.2044 7.405 95.0544 7.405H94.9644C90.5094 7.405 86.9094 9.295 87.2694 12.445C87.7194 16.72 97.1244 17.215 96.0444 20.77C95.5944 22.165 93.2994 22.345 93.6144 20.005C94.0644 16.315 85.6044 16.765 87.2694 20.05C88.3044 22.12 91.9944 23.02 95.1894 23.02H95.2794C99.6444 23.02 103.379 20.545 102.974 18.16C102.344 14.29 93.3444 13.3 94.1994 9.655C94.5594 8.26 96.9444 8.125 96.6294 10.42C96.1794 14.11 104.639 13.66 102.974 10.375ZM115.804 0.43H109.009C106.264 0.43 103.744 0.789998 103.744 2.5C103.744 3.22 104.239 4.165 104.644 4.705C105.274 5.65 105.724 8.71 105.814 11.725C105.724 14.785 105.274 17.845 104.644 18.79C104.239 19.33 103.744 20.23 103.744 20.95C103.744 22.705 106.264 23.02 109.009 23.02H115.804C122.869 23.02 128.449 17.935 128.449 11.725C128.449 5.515 122.869 0.43 115.804 0.43ZM115.489 20.905C113.554 20.905 112.789 17.62 112.789 11.725C112.789 5.875 113.554 2.59 115.489 2.59C118.684 2.59 120.394 8.53 120.394 11.725C120.394 14.965 118.684 20.905 115.489 20.905ZM147.007 9.43C146.287 8.44 144.847 7.405 142.642 7.405C141.112 7.405 139.447 8.26 138.412 9.43C138.457 9.16 138.502 8.98 138.502 8.845C139.177 5.965 134.902 8.17 133.327 8.935C131.752 9.745 129.412 10.69 129.232 12.04C129.142 12.715 129.772 13.075 130.222 13.66C131.167 14.875 130.987 19.375 130.042 20.23C129.637 20.635 129.142 20.86 129.232 21.445C129.412 22.795 132.697 23.02 134.452 23.02C136.207 23.02 139.672 22.795 139.852 21.445C139.942 20.905 139.402 20.77 138.997 20.32C137.692 18.97 137.782 15.28 138.007 12.4C138.142 10.87 138.907 10.555 139.357 10.555C140.572 10.555 141.292 11.68 142.012 12.67C144.352 16.09 148.447 11.41 147.007 9.43ZM152.281 7.405C154.126 7.405 155.611 5.92 155.611 4.075C155.611 2.23 154.126 0.744998 152.281 0.744998C150.436 0.744998 148.951 2.23 148.951 4.075C148.951 5.92 150.436 7.405 152.281 7.405ZM156.871 8.845C157.546 5.965 153.271 8.17 151.696 8.935C150.121 9.745 147.781 10.69 147.601 12.04C147.511 12.715 148.141 13.075 148.591 13.66C149.536 14.875 149.356 19.375 148.411 20.23C148.006 20.635 147.511 20.86 147.601 21.445C147.781 22.795 151.066 23.02 152.821 23.02C154.576 23.02 158.041 22.795 158.221 21.445C158.311 20.905 157.771 20.77 157.366 20.32C155.296 18.16 156.601 10.15 156.871 8.845ZM169.917 7.405C168.657 7.405 167.487 7.81 166.497 8.485C166.677 6.145 162.717 8.215 161.232 8.935C159.657 9.745 157.317 10.69 157.137 12.04C157.047 12.715 157.677 13.075 158.127 13.66C159.072 14.875 158.937 17.215 158.937 20.095C158.937 22.705 158.892 26.35 157.947 27.205C157.542 27.61 157.047 27.79 157.137 28.42C157.317 29.77 160.602 29.995 162.357 29.995C164.112 29.995 167.577 29.77 167.757 28.42C167.847 27.835 167.307 27.7 166.902 27.295C166.227 26.575 165.957 24.64 165.822 22.255C166.137 22.48 167.217 23.02 169.422 23.02C173.157 23.02 176.622 19.51 176.622 15.235C176.622 10.915 173.607 7.405 169.917 7.405ZM167.487 20.905C167.037 21.13 165.777 20.725 165.777 19.06C165.777 16.045 165.912 13.615 166.137 11.635C166.182 10.735 166.902 9.565 167.802 9.565C170.457 9.565 171.717 18.97 167.487 20.905Z" fill="black"/>
</svg>
